<svg version="1.2" xmlns="http://www.w3.org/2000/svg" viewBox="0 0 2000 2000" width="2000" height="2000">
	<style>
		.s0 { fill: #000000 } 
	</style>
	<path id="SYPHYR	" class="s0" aria-label="SYPHYR	"  d="m335.4 828l-75.6 75.6q-2.4 2.4-4 6-1.6 3.2-2.4 6.8 0 0.8 0 1.6 0 0.4 0 1.2 0 4.4 1.6 8.8 1.6 4 4.8 7.2l13.6 13.6q14.8 14.8 22.8 33.2 8 18.4 8.8 38 0 0.8 0 2 0 1.2 0 2.4 0 20.8-8 40.8-7.6 19.6-23.6 35.2l-1.2 1.2h-120l61.2-61.2q3.2-3.2 4.8-7.2 1.6-4.4 1.6-8.8 0-0.8 0-1.2 0-0.8 0-1.6-0.4-3.6-2-6.8-1.6-3.6-4.4-6l-13.2-13.6q-16-15.6-24-35.2-7.6-20-7.6-40.8 0-1.2 0-2.4 0-1.2 0-2.4 0.8-19.2 8.4-37.6 8-18.8 22.8-33.6l15.2-15.2zm320.4 0l-97.6 169.6v104.4h-84.8v-104.4l-97.6-169.6h98l42 72.8 42-72.8zm297.2 117.6q0 48.4-34.4 82.8-34.4 34.4-83.2 34.4h-49.6v39.2h-85.2v-274h134.8q48.8 0 83.2 34.4 34.4 34.4 34.4 83.2zm-85.2 0q0-13.6-9.6-22.8-9.2-9.6-22.8-9.6h-49.6v64.8h49.6q13.6 0 22.8-9.6 9.6-9.6 9.6-22.8zm366.6 156.4h-85.2v-94.4h-57.6v94.4h-85.2v-274h85.2v94.4h57.6v-94.4h85.2zm327.4-274l-97.6 169.6v104.4h-84.8v-104.4l-97.6-169.6h98l42 72.8 42-72.8zm303.8 186.8l-46.8 98q-4-0.4-8.4-0.4-4-0.4-8-0.8-8.4-0.4-16.8-1.6-8-1.6-16-4-21.6-5.2-41.6-16-20-11.2-36.8-27.2h-0.8v39.2h-84.8v-274.8l134.4 0.8q48.8 0.4 83.2 34.8 34.4 34 34.4 82.8 0 24-9.2 45.2-9.2 20.8-24.8 36.8 10.8-0.8 21.2-4 10.8-3.2 20.8-8.8zm-93.2-69.2q0-13.6-9.6-22.8-9.2-9.6-22.8-9.6h-49.6v64.8h49.6q13.6 0 22.8-9.6 9.6-9.6 9.6-22.8z"/>
</svg>