<svg version="1.2" xmlns="http://www.w3.org/2000/svg" viewBox="0 0 2000 2000" width="2000" height="2000"><style></style><path  d="m335.4 828l-75.6 75.6q-2.4 2.4-4 6-1.6 3.2-2.4 6.8 0 0.8 0 1.6 0 0.4 0 1.2 0 4.4 1.6 8.8 1.6 4 4.8 7.2l13.6 13.6q14.8 14.8 22.8 33.2 8 18.4 8.8 38 0 0.8 0 2 0 1.2 0 2.4 0 20.8-8 40.8-7.6 19.6-23.6 35.2l-1.2 1.2h-120l61.2-61.2q3.2-3.2 4.8-7.2 1.6-4.4 1.6-8.8 0-0.8 0-1.2 0-0.8 0-1.6-0.4-3.6-2-6.8-1.6-3.6-4.4-6l-13.2-13.6q-16-15.6-24-35.2-7.6-20-7.6-40.8 0-1.2 0-2.4 0-1.2 0-2.4 0.8-19.2 8.4-37.6 8-18.8 22.8-33.6l15.2-15.2zm320.4 0l-97.6 169.6v104.4h-84.8v-104.4l-97.6-169.6h98l42 72.8 42-72.8zm297.2 117.6q0 48.4-34.4 82.8-34.4 34.4-83.2 34.4h-49.6v39.2h-85.2v-274h134.8q48.8 0 83.2 34.4 34.4 34.4 34.4 83.2zm-85.2 0q0-13.6-9.6-22.8-9.2-9.6-22.8-9.6h-49.6v64.8h49.6q13.6 0 22.8-9.6 9.6-9.6 9.6-22.8zm366.6 156.4h-85.2v-94.4h-57.6v94.4h-85.2v-274h85.2v94.4h57.6v-94.4h85.2zm327.4-274l-97.6 169.6v104.4h-84.8v-104.4l-97.6-169.6h98l42 72.8 42-72.8zm303.8 186.8l-46.8 98q-4-0.4-8.4-0.4-4-0.4-8-0.8-8.4-0.4-16.8-1.6-8-1.6-16-4-21.6-5.2-41.6-16-20-11.2-36.8-27.2h-0.8v39.2h-84.8v-274.8l134.4 0.8q48.8 0.4 83.2 34.8 34.4 34 34.4 82.8 0 24-9.2 45.2-9.2 20.8-24.8 36.8 10.8-0.8 21.2-4 10.8-3.2 20.8-8.8zm-93.2-69.2q0-13.6-9.6-22.8-9.2-9.6-22.8-9.6h-49.6v64.8h49.6q13.6 0 22.8-9.6 9.6-9.6 9.6-22.8z"/><path  d="m351.3 1259.5q-11.9 0-16.7-7.1-1.7-2.2-1.7-5.9 0-4 2.6-7 3-3.5 7.5-3.5 3 0 4.8 2.2 1.6 1.6 1.6 4.5 0 3.5-2.5 5.8-2.5 2.1-5.4 2.1-2.6 0-4.6-1.8 2.5 5.7 9.1 5.7 15.4 0 28.9-20.1 3.5-4.9 6.8-10.4 3.3-5.5 6.6-11.5 3-5.7 6-11.4 3-5.7 6-11.4 12.3-23.2 27.1-27.6-5.7-0.8-11.3-1.6-5.6-1-11.3-1.8-6.7-1.1-12.4-1.5-5.6-0.5-10-0.5-17.7 0-28.6 7.3-6.3 4.3-10.1 10.3-3.8 6.1-3.8 11.8 0 13.2 17.7 13.2 6 0 12-2.3 6-2.3 12.3-6.7 5.2-3.9 9.7-8.7 4.5-4.9 8-10.9 0.7-1.2 1.9-1.2 1.8 0 1.1 1.3-3 6.9-7.4 12.6-4.3 5.6-10.2 9.9-12 8.7-26.6 8.7-6.4 0-11.5-1.7-5.1-1.8-8.5-5.3-5.8-6-5.8-14.5 0-7.3 4.5-14.2 4.5-7 12.8-11.3 13.5-6.5 29.8-6.5 5.9 0 14.2 1 8.2 1 18.8 3.2 14.3 2.8 23.4 4.1 9.2 1.4 13.3 1.4 8.8 0 14.2-3.2 0.9-0.4 1.5-0.4 0.9 0 0.9 1.2 0 1-1.2 1.8-9.9 6.7-25.1 5.9l-4.8-0.5q-14.3 1.7-23.8 24.9-12.6 30.8-15 35.4-10 19.5-23.9 29.4-9.4 6.8-21 6.8zm76.3-5.5q5.1-11.7 14.6-33.4 9.5-21.9 23.6-53.7 0.2-0.4 0.2-0.9 0.2-0.5 0.2-0.9 0-2.1-1.9-4.5h8.2q4.2 0 4.2 1.9 0 1.1-1 3.2-4.6 10.1-12 26.4-7.3 16.4-17.5 39 2.3-3.1 5.4-6.4 3.1-3.4 7.1-6.8 2.6-2.6 6-4.8 3.3-2.4 7.1-4.5 8.9-4.9 13.1-4.9 1.1 0 1.5 0.1-2.4 4.2-4.5 8.1-1.9 3.9-3.7 7.4-8.7 16.7-9.8 23.2-0.4 2.3-0.4 3.9 0 4.1 3 4.1 4 0 10.9-10.1l2.3 1.4q-7.9 11.8-15.5 11.8-9.5 0-9.5-9.8 0-7.9 9.8-23.5 1.5-2.4 1.5-4 0-1.8-1.7-1.8-1.6 0-4.3 1.8-2.5 1.6-6.2 4.9-5.6 5.3-10.8 12.8-4.9 7.3-9.3 16.9-1 2.3-4.7 2.4-5 0.3-5.9 0.7zm81.3-0.4q-5.9 0-10.1-3.8-2.3-2-3.3-4.8-0.9-2.8-0.9-6.4 0-13.8 11.4-27.4 9.6-11.6 20-11.6 3.4 0 5.8 1.8 2.6 2.1 2.6 5.4 0 8.2-11 16.5-3.4 2.5-9.2 4.5-6.2 2.1-9.1 2.1-2.1 5.1-2.1 10.8 0 9.8 7.2 9.8 9.4 0 17.7-12.3l0.6-0.9 2.6 1-0.5 0.9q-3.8 7.5-9.5 11-5.6 3.4-12.3 3.4zm-2.8-26.3q2.5 0 7.1-1.6 2.5-1 4.8-2.2 2.3-1.2 4.2-2.7 8.2-7 8.2-14.6 0-3.3-2.4-3.3-4.2 0-12.8 10.4-4.3 5.2-9.1 14zm110.6 37q-14.8 0-22.5-9-6.5-7.7-6.5-20.9 0-8.9 2.8-18 2.8-9.3 8.2-18.6-8.8-3-15.1-9.8-6.4-7-6.4-15.4 0-9.8 8.8-14.7 7.1-3.9 16.5-3.9 16.5 0 28.8 10.7 22.4-14 44.5-14 20.4 0 20.4 10.8 0 10.5-16.6 22.7-23.4 17.1-58.6 17.1-2.4 0-4.8-0.2-2.3-0.1-4.4-0.4-12.5 19.9-12.5 36.8 0 9.8 4.3 15.8 5.4 7.8 16.3 7.8 19.9 0 39.4-23.4 9.9-12 9.9-21 0-8.2-8.5-8.2-9.5 0-23.7 10.3-12.6 9.3-18.6 18.7-0.4 0.8-1.1 0.8-1 0-1-1.5 0-0.6 0.2-0.8 4.6-10.3 17.8-20.3 13.5-10.2 24.3-10.2 7.2 0 11 4.5 3.4 4.3 3.4 10.5 0 5-1.9 10.5-2 5.3-6.4 10.6-8.2 10.5-21.4 16.5-13.5 6.2-26.6 6.2zm4.5-66.8q7.7 0 15.5-1.3 21.5-4.1 40.5-17.9 12.8-9.1 12.8-18.5 0-6.1-10.3-6.1-19.7 0-42 17.8 1.4 2 2.6 4 1.2 1.9 2.3 4 0.6 1-0.6 1.3h-0.5q-1.2 0-1.7-0.8-0.7-1.1-1.9-2.6-1.2-1.6-2.8-3.6-12.2 10.5-20.9 23.2 3.6 0.5 7 0.5zm-20-3.6q10.3-15.9 26.6-27-12.8-10.2-27.1-10.2-7 0-12.1 3.5-6 4.1-6 12.1 0 14.7 18.6 21.6zm111.6 1.1q-5.1 0-5.1-5 0-5 4.9-5 5.1 0 5.1 5 0 5-4.9 5zm-12.8 58h-7.5q-4.4 0-4.4-4.3 0-2.7 1.8-7.4 3.9-9.6 7.3-17.7 3.5-8.1 6.5-14.7 0.5-0.7 0.5-1.6 0-2.1-2-4.5l8.3-0.2q4.2 0 4.2 2.1 0 0.6-0.4 1.3-0.2 0.7-0.7 1.8l-13.8 32q-2.1 5-2.1 8.4 0 3.6 2.3 4.8zm16.5 48.6q-1.1-0.8-2.3-1.8-1.2-1.2-2.9-2.7-3.1-3.1-3.1-7.5 0-3.1 1.8-8.7 1.5-4.4 4.8-13.1 3.4-8.6 9-21.7 1.7-3.9 3.8-9.1 2.1-5.5 4.5-12.3 0.6-1.7 1.1-3.8 0.6-2.2 1.3-5.1 0.2-1.6 0.4-3 0.3-1.5 0.3-2.6 0-5.2-3.3-7.5l7.3-1.2q1.3-0.1 2-0.1 0.8 0 0.9 0 2.6 0 2.6 5.3 0 7.3-4.2 19 15.6-25.5 24.8-25.5 4.5 0 7.3 3.8 2.2 3.1 2.2 7.9 0 6.6-3.6 15-3.9 8.6-9 14.7-9.7 11.6-21.9 11.6-5.6 0-10.2-2.9-2.9 7.2-5.3 14.7-2.2 7.3-4.3 15.2-4.3 15.6-4 21.4zm19.6-51.8q9.3 0 20.7-15.8 11.1-15.5 11.1-24.8 0-4.8-4.1-4.8-5.6 0-12.6 9.6-3.7 5.4-8.8 14-4.9 8.5-11.1 20 1.8 1.8 4.8 1.8zm43.6 4.2q5.1-11.7 14.5-33.4 9.6-21.9 23.8-53.7 0.1-0.4 0.1-0.9 0.1-0.5 0.1-0.9 0-2.1-1.7-4.5h8.1q4.1 0 4.1 1.9 0 1.1-0.9 3.2-4.6 10.1-12 26.4-7.3 16.4-17.5 39 2.3-3.1 5.4-6.4 3.1-3.4 7-6.8 2.8-2.6 6-4.8 3.4-2.4 7.3-4.5 8.8-4.9 13-4.9 1.1 0 1.5 0.1-2.4 4.2-4.5 8.1-1.9 3.9-3.8 7.4-8.6 16.7-9.7 23.2-0.4 2.3-0.4 3.9 0 4.1 3 4.1 4 0 10.9-10.1l2.2 1.4q-7.7 11.8-15.4 11.8-9.5 0-9.5-9.8 0-7.9 9.8-23.5 1.5-2.4 1.5-4 0-1.8-1.6-1.8-1.7 0-4.4 1.8-2.5 1.6-6.1 4.9-5.8 5.3-10.8 12.8-5 7.3-9.4 16.9-1 2.3-4.7 2.4-5 0.3-5.9 0.7zm82.3-0.4q-5.9 0-10.1-3.8-2.2-2-3.3-4.8-0.9-2.8-0.9-6.4 0-13.8 11.4-27.4 9.6-11.6 20-11.6 3.4 0 5.8 1.8 2.6 2.1 2.6 5.4 0 8.2-11 16.5-3.4 2.5-9.2 4.5-6.2 2.1-9.1 2.1-2.1 5.1-2.1 10.8 0 9.8 7.2 9.8 9.4 0 17.7-12.3l0.6-0.9 2.6 1-0.5 0.9q-3.7 7.5-9.5 11-5.6 3.4-12.2 3.4zm-2.9-26.3q2.6 0 7.1-1.6 2.5-1 4.8-2.2 2.3-1.2 4.2-2.7 8.2-7 8.2-14.6 0-3.3-2.4-3.3-4.2 0-12.8 10.4-4.3 5.2-9.1 14zm32.6 26.7q2.9-7.2 7.5-18 4.8-10.7 10.8-24.5 1.2-3 2.2-4.8 1.3-1.9 2.1-2.9 2-2.3 5.3-1.8l3.1 0.5q1.1 0.1 1.9 0.3 0.9 0 1.5-0.2-3 1.5-7.1 8.6-3.9 6.8-8.7 18.8 1.7-2 4.2-5.5 2.6-3.6 6.5-8.2 4.3-5.1 9-9.5 4.6-4.3 9-4.3 3.4 0 4.9 2.2 1.5 2.3 1.5 5.1 0 3.5-2.7 6.2-2.7 2.7-5.2 2.7-1.1 0-2.3-0.5-1-0.4-1-1.4 0-0.7 0.3-1.3 0.2-0.7 0.2-1.7 0-2.2-2-2.2-0.8 0-2.1 0.4-1.3 0.3-3.4 2.5-4.1 3.8-9.1 9.4-4.8 5.4-9.1 12.1-4.3 6.8-6.9 14.9-0.8 2.3-4.5 2.4-5.1 0.3-5.9 0.7zm104-1q-11 0-11-13.3 0-6.7 3.2-14 4.5-10.7 12.8-18 8-7.2 15.3-7.2 11 0 11 13 0 6.8-3.3 14.3-3.9 9-11.2 16.4-9.2 8.8-16.8 8.8zm2.4-3.3q3.5 0 7.4-2.9 4.9-3.5 11.2-15 6.9-12.3 6.9-19.8 0-6.7-5.7-6.7-4.5 0-10.2 5.7-5.5 5.5-9.5 14.1-5.2 11.2-5.2 18 0 6.6 5.1 6.6zm49.9 3.3h-7.5q-4.1 0-4.1-4.3 0-2.7 1.8-7.4l16.3-42h-11.7l1.8-3.3h11.3q1.3-3.5 2.5-6.6 1.3-3.1 2.7-6 3-6.9 5.6-11.7 2.7-4.9 4.6-8.1 8.6-13.3 21.2-13.3 6.5 0 9.7 5.2 1.3 2.3 1.3 7 0 2.8-0.7 4.5l-2.6 0.2q0.3-1.5 0.5-2.7 0.3-1.3 0.3-2.4 0-3.3-1.5-4.9-2.7-3.2-5.8-3.2-8 0-16.7 15.9-1.5 2.9-4.6 9.4-3.2 6.5-7.9 16.7h20.6l-1.8 3.3h-20.1l-15.2 40.5q-1.9 5-1.9 8.5 0 3.7 1.9 4.7zm100.7 11.3q-14.8 0-22.5-9-6.5-7.7-6.5-20.9 0-8.9 2.8-18 2.9-9.3 8.2-18.6-8.8-3-15.1-9.8-6.4-7-6.4-15.4 0-9.8 8.8-14.7 7-3.9 16.5-3.9 16.5 0 28.8 10.7 22.4-14 44.6-14 20.3 0 20.3 10.8 0 10.5-16.6 22.7-23.4 17.1-58.6 17.1-2.5 0-4.8-0.2-2.3-0.1-4.4-0.4-12.4 19.9-12.4 36.8 0 9.8 4.1 15.8 5.5 7.8 16.4 7.8 20 0 39.5-23.4 9.8-12 9.8-21 0-8.2-8.5-8.2-9.5 0-23.7 10.3-12.6 9.3-18.6 18.7-0.4 0.8-1 0.8-1.1 0-1.1-1.5 0-0.6 0.2-0.8 4.6-10.3 17.8-20.3 13.5-10.2 24.3-10.2 7.2 0 10.9 4.5 3.5 4.3 3.5 10.5 0 5-2 10.5-1.9 5.3-6.3 10.6-8.2 10.5-21.4 16.5-13.5 6.2-26.6 6.2zm4.5-66.8q7.7 0 15.5-1.3 21.5-4.1 40.5-17.9 12.8-9.1 12.8-18.5 0-6.1-10.3-6.1-19.7 0-42 17.8 1.4 2 2.6 4 1.2 1.9 2.2 4 0.7 1-0.5 1.3h-0.5q-1.2 0-1.6-0.8-0.8-1.1-2-2.6-1.2-1.7-2.9-3.6-12.1 10.5-20.8 23.2 3.6 0.5 7 0.5zm-20-3.6q10.3-15.9 26.7-27-12.9-10.2-27.2-10.2-7 0-12.2 3.5-6 4.1-6 12.1 0 14.7 18.7 21.6zm99.5 59.1q-11 0-11-13.3 0-6.7 3.2-14 4.5-10.7 12.8-18 8-7.2 15.3-7.2 11 0 11 13 0 6.8-3.3 14.3-3.8 9-11.2 16.4-9.1 8.8-16.8 8.8zm2.4-3.3q3.4 0 7.4-2.9 4.9-3.6 11.2-15 6.9-12.3 6.9-19.8 0-6.7-5.7-6.7-4.5 0-10.2 5.7-5.5 5.5-9.5 14.1-5.2 11.2-5.2 18 0 6.6 5.1 6.6zm33.6 4.3q3-7.3 7.5-18.1 4.5-10.8 11-24.9 1.3-3 2.5-5 1.2-1.9 2.3-3 2-2 5.4-2 0.3 0 1 0 0.8 0 2.1 0.2 2.1 0.2 3.2 0-5.6 3.3-16.7 29.1 1.8-2.5 4.8-5.5 3.1-3.1 7.4-6.9 2.7-2.6 6-4.8 3.2-2.4 7.2-4.5 8.8-4.9 13-4.9 1 0 1.5 0.1-2.4 4.2-4.5 8.1-2 3.9-3.7 7.3-8.8 16.8-9.8 23.3-0.2 1-0.3 2 0 0.8 0 1.6 0 3.9 2.9 3.9 4.6 0 11-9.5l2.2 1.5q-7.7 11.6-15.5 11.6-9.5 0-9.5-9.8 0-7.9 9.8-23.5 1.5-2.4 1.5-4.1 0-1.7-1.6-1.7-1.7 0-4.4 1.7-2.5 1.7-6.1 5-5.7 5.3-10.7 12.6-5 7.2-9 16.5-0.9 2.2-4.7 2.7-4.8 0.5-5.8 1zm80.3-1h-7.5q-4.1 0-4.1-4.3 0-2.7 1.8-7.4l16.3-42h-11.7l1.8-3.3h11.3q1.3-3.5 2.5-6.6 1.3-3.2 2.7-6 3-6.9 5.6-11.7 2.7-5 4.6-8.1 8.6-13.4 21.1-13.4 6.6 0 9.8 5.3 1.3 2.2 1.3 7 0 2.7-0.7 4.5l-2.6 0.2q0.3-1.5 0.5-2.7 0.3-1.3 0.3-2.4 0-3.3-1.5-4.9-2.7-3.2-5.8-3.2-8 0-16.7 15.9-1.5 2.8-4.6 9.4-3.2 6.5-7.9 16.7h20.6l-1.8 3.3h-20.1l-15.2 40.5q-1.9 4.9-1.9 8.5 0 3.7 1.9 4.7zm43.2-58q-5 0-5-5 0-5 4.7-5 5.1 0 5.1 5 0 5-4.8 5zm-12.8 58h-7.5q-4.4 0-4.4-4.3 0-2.7 1.8-7.4 3.9-9.6 7.4-17.7 3.4-8.1 6.4-14.7 0.4-0.7 0.4-1.7 0-2-1.9-4.5l8.3-0.1q4.1 0 4.1 2.1 0 0.6-0.3 1.3-0.3 0.7-0.7 1.8l-13.8 32q-2.1 4.9-2.1 8.4 0 3.6 2.3 4.8zm62 0q-8.7 0-8.7-11.1 0-4.8 1.7-9-11.2 19.8-21.6 19.8-0.6 0-1.2 0-0.6-0.2-1.4-0.3-7.5-2.1-7.5-11.4 0-6.9 3.8-15.3 1.8-4 3.9-7.7 2.3-3.7 5-6.8 9.4-11.5 21.5-11.5 5.5 0 10.1 2.8 2.5-5 6-13.8 3.6-9 8.2-21.8 1.8-4.9 3.8-6.4 2.2-1.5 6-1.4l3.2 0.4q1 0.2 1.7 0.3 0.8 0 1.4-0.1-1.5 1.6-5.6 9.3-4 7.5-10.5 21.2-6.5 13.8-11.2 24.5-4.5 10.8-7.2 18.3-2.3 6.3-2.3 11 0 5.1 3.5 5.1 4.5 0 9.6-8.3l0.6-0.7 2.4 1.2-0.6 0.7q-6.9 11-14.6 11zm-27.1-4.5q4.9 0 12-9.8 7.5-10.6 19.9-33.9-1.8-1.8-4.3-1.8-6.2 0-14.4 8.3-7.8 7.7-13.1 17.5-4.2 7.9-4.2 13.7 0 6 4.1 6zm68.6 5.1q-5.8 0-10-3.8-2.2-2.1-3.3-4.8-0.9-2.8-0.9-6.4 0-13.8 11.4-27.4 9.6-11.6 19.9-11.6 3.5 0 5.9 1.8 2.6 2.1 2.6 5.4 0 8.2-11 16.5-3.5 2.5-9.1 4.5-6.4 2.1-9.2 2.1-2.1 5.1-2.1 10.8 0 9.8 7.2 9.8 9.4 0 17.7-12.3l0.6-1 2.6 1.1-0.5 0.9q-3.7 7.5-9.5 11-5.7 3.4-12.2 3.4zm-2.9-26.3q2.6 0 7.1-1.6 2.5-1 4.8-2.2 2.4-1.3 4.2-2.8 8.2-6.9 8.2-14.5 0-3.3-2.4-3.3-4.2 0-12.8 10.3-4.3 5.3-9.1 14.1zm32.6 26.7q3-7.3 7.5-18.1 4.5-10.8 11-24.9 1.3-3 2.5-5 1.2-1.9 2.3-3 2-2 5.4-2 0.3 0 1 0 0.8 0 2.1 0.2 2.1 0.2 3.2 0-5.6 3.3-16.7 29.1 1.8-2.5 4.8-5.5 3.2-3.1 7.4-6.9 2.7-2.6 6-4.8 3.3-2.4 7.2-4.5 8.8-4.9 13-4.9 1.1 0 1.5 0.1-2.4 4.2-4.5 8.1-1.9 3.9-3.7 7.3-8.7 16.8-9.8 23.3-0.2 1-0.3 2 0 0.8 0 1.6 0 3.9 2.9 3.9 4.6 0 11-9.5l2.2 1.5q-7.7 11.6-15.5 11.6-9.5 0-9.5-9.8 0-7.9 9.8-23.5 1.5-2.4 1.5-4.1 0-1.7-1.6-1.7-1.7 0-4.4 1.7-2.5 1.7-6.1 5-5.7 5.3-10.7 12.6-5 7.2-9 16.5-0.9 2.2-4.7 2.7-4.8 0.5-5.8 1zm83-0.4q-15 0-15-15 0-12.6 8.8-24.9 9.4-13.5 21.7-13.5 11.4 0 10.2 10.3-0.2 2.7-2.9 5.9-2.5 3-4.9 3-1.4 0-2.2-0.9 3.7-3.8 4.6-7.7 0.3-1 0.5-1.8 0.1-0.8 0.1-1.6 0-3.9-3.6-3.9-5.3 0-14.7 12.7-9 12.2-9 23.8 0 10.9 8.4 10.9 8.1 0 15.8-10.2l0.9-1.2 2.1 1.2-1.1 1.5q-7.9 11.4-19.7 11.4zm46.3 0q-5.9 0-10.1-3.8-2.2-2.1-3.3-4.8-0.9-2.8-0.9-6.4 0-13.8 11.4-27.4 9.6-11.6 19.9-11.6 3.5 0 5.9 1.8 2.6 2.1 2.6 5.4 0 8.2-11 16.5-3.5 2.5-9.1 4.5-6.4 2.1-9.2 2.1-2.1 5.1-2.1 10.8 0 9.8 7.2 9.8 9.4 0 17.7-12.3l0.6-1 2.6 1.1-0.5 0.9q-3.7 7.5-9.5 11-5.7 3.4-12.2 3.4zm-2.9-26.3q2.6 0 7.1-1.6 2.5-1 4.8-2.2 2.4-1.3 4.2-2.8 8.2-6.9 8.2-14.5 0-3.3-2.4-3.3-4.2 0-12.8 10.3-4.3 5.3-9.1 14.1z"/></svg>